<svg id="Capa_1" enable-background="new 0 0 512 512" height="512" viewBox="0 0 512 512" width="512" xmlns="http://www.w3.org/2000/svg"><g><path d="m256 0c141.385 0 256 114.615 256 256 0 58.802-19.825 112.973-53.156 156.194-1.55 2.009-13.343 2.206-14.951 4.167-22.8 27.823-41.132 43.769-73.612 60-2.484 1.241-4.991 11.22-7.521 12.382-32.495 14.932-68.655 23.257-106.76 23.257-141.385 0-256-114.615-256-256 0-65.032 24.249-124.401 64.199-169.558 1.994-2.254 15.581.102 17.652-2.081 27.31-28.771 52.448-47.794 90.553-61.447 2.112-.757 1.472-9.469 3.609-10.171 25.166-8.269 52.054-12.743 79.987-12.743z" fill="#2476ed"/><path d="m271 79c97.754 0 177 79.246 177 177s-79.246 177-177 177-177-79.246-177-177 79.246-177 177-177z" fill="#3493f8"/><path d="m162.077 238.667c0 2.761-2.238 5-5 5h-8.334v8.333c0 2.761-2.238 5-5 5s-5-2.239-5-5v-8.333h-8.333c-2.762 0-5-2.239-5-5s2.238-5 5-5h8.333v-8.333c0-2.761 2.238-5 5-5s5 2.239 5 5v8.333h8.334c2.762 0 5 2.238 5 5z" fill="#a7d0fc"/><path d="m118.788 306.125c0 2.761-2.238 5-5 5h-8.334v8.333c0 2.761-2.238 5-5 5s-5-2.239-5-5v-8.333h-8.333c-2.762 0-5-2.239-5-5s2.238-5 5-5h8.333v-8.333c0-2.761 2.238-5 5-5s5 2.239 5 5v8.333h8.334c2.762 0 5 2.239 5 5z" fill="#fff"/><path d="m443.257 188.053c-5.738 11.268-16.794 22.27-24.262 22.895-.21.019-.424.028-.642.028-.217 0-.431-.009-.642-.028-7.468-.625-18.525-11.627-24.262-22.895-6.383-12.535-3.768-20.653 3.518-22.696 6.017-1.687 13.337 1.297 19.299 9.449.994 1.359 3.181 1.359 4.175 0 5.962-8.152 13.282-11.136 19.299-9.449 7.285 2.043 9.9 10.161 3.517 22.696zm-368.517 16.304c-6.017-1.687-13.337 1.297-19.299 9.449-.994 1.359-3.181 1.359-4.175 0-5.962-8.152-13.282-11.136-19.299-9.449-7.285 2.043-9.901 10.161-3.518 22.696 5.738 11.268 16.794 22.27 24.262 22.895.21.019.424.028.642.028.217 0 .431-.009.642-.028 7.468-.625 18.524-11.627 24.262-22.895 6.383-12.535 3.768-20.653-3.517-22.696z" fill="#ff94d2"/><path d="m428.053 206.701c-3.207 2.448-6.365 4.022-9.058 4.247-.21.019-.424.028-.642.028-.217 0-.431-.009-.642-.028-7.468-.625-18.525-11.627-24.262-22.895-6.383-12.535-3.768-20.653 3.518-22.696.198-.055.397-.106.598-.151.046 4.074 1.385 9.039 4.31 14.783 6.166 12.11 17.488 23.962 26.178 26.712zm-391.179 12.288c-2.925-5.744-4.263-10.709-4.31-14.783-.201.045-.4.096-.598.151-7.285 2.043-9.901 10.161-3.518 22.696 5.738 11.268 16.794 22.27 24.262 22.895.21.019.424.028.642.028.217 0 .431-.009.642-.028 2.692-.225 5.85-1.799 9.058-4.247-8.689-2.75-20.011-14.602-26.178-26.712z" fill="#ff72c3"/><path d="m319.292 118.075c-1.916 28.488-13.857 66.494-27.076 75.919-.667.659-1.388 1.329-2.168 2.011-12.5 10.925-35.177 20.653-41.346 13.595-6.168-7.058 6.509-28.229 19.008-39.153.195-.17.388-.337.581-.5-2.476-9.076-4.224-19.632-5.107-30.195-6.131-1.074-12.678-3.28-19.116-6.641-20.251-10.571-31.754-28.555-25.692-40.169s64.328-17.499 75.382-16.756c15.588 1.048 27.762 8.759 25.534 41.889z" fill="#ffbeaa"/><path d="m346.666 142.365c-6.595 27.78-24.65 63.291-39.244 70.403-.766.54-1.589 1.082-2.471 1.625-14.133 8.71-38.106 14.558-43.023 6.579-4.918-7.98 11.082-26.766 25.215-35.476.22-.136.439-.268.655-.397-1.726-17.128-.226-38.739 3.825-55.802 7.67-32.307 21.58-36.072 36.78-32.464 9.721 2.308 18.185 6.317 20.606 17.904 1.364 6.531.421 15.984-2.343 27.628z" fill="#ffdecf"/><path d="m326.626 237.348c-13.277 26.074-38.86 51.532-56.141 52.978-.487.044-.982.066-1.485.065-.503.001-.998-.021-1.485-.065-17.281-1.446-42.864-26.904-56.141-52.978-14.77-29.005-8.718-47.789 8.14-52.516 13.922-3.904 30.86 3.001 44.656 21.863 2.3 3.144 7.36 3.144 9.66 0 13.796-18.862 30.734-25.767 44.657-21.863 16.857 4.726 22.909 23.51 8.139 52.516z" fill="#fb5858"/><path d="m291.443 280.497c-7.421 5.665-14.729 9.307-20.958 9.828-.487.044-.982.066-1.485.065-.503.001-.998-.021-1.485-.065-17.281-1.446-42.864-26.904-56.141-52.978-14.77-29.005-8.718-47.789 8.14-52.516.458-.128.919-.245 1.383-.35.107 9.428 3.205 20.916 9.972 34.206 14.268 28.023 40.468 55.447 60.574 61.81z" fill="#f44545"/><path d="m347.489 125.023c-9.596 18.384-56.567 12.83-104.912-12.405-4.128-2.155-8.133-4.384-11.999-6.669l-15.738 30.15c13.353 39.808 17.357 92.988 9.6 110.323-.654 1.819-1.67 3.45-3.063 4.803-6.705 6.515-15.95 9.936-25.142.476-1.562-1.607-2.262-3.79-2.304-6.26-.242-14.239-4.145-28.189-10.308-41.027-8.871-18.479-17.709-39.512-25.134-57.671l-.077-.188c-4.559-11.163-13.057-20.266-23.881-25.58l-70.332-34.532c29.744-33.621 68.191-59.363 111.814-73.699l3.425 1.944c8.489 4.817 17.942 7.608 27.665 8.46 19.474 1.707 44.658 9.548 70.226 22.894 48.345 25.236 79.757 60.597 70.16 78.981z" fill="#ffdecf"/><path d="m216.994 254.733c-6.079 3.865-13.435 4.504-20.758-3.032-1.562-1.607-2.262-3.79-2.304-6.26-.242-14.239-4.146-28.19-10.309-41.029-8.871-18.479-17.709-39.511-25.133-57.67-.026-.063-.051-.125-.077-.188-4.535-11.112-12.935-20.206-23.708-25.495l-70.506-34.616c6.325-7.149 13.043-13.942 20.121-20.344l57.62 28.291c13.536 6.646 24.09 18.071 29.788 32.033.032.078.064.157.096.236 9.328 22.815 20.433 49.241 31.578 72.458 7.744 16.131 12.648 33.659 12.952 51.55.025 1.445.23 2.813.64 4.066z" fill="#ffbeaa"/><path d="m458.844 412.194c-25.212 32.693-58.151 59.122-96.083 76.55l-31.917-22.824c-36.709 8.716-85.128 9.369-128.375-4.749-48.684-15.893-67.221-42.472-72.028-51.179-10.512-19.043-18.141-45.816-10.29-51.179 6.524-4.455 20.565 7.987 31.849 15.187 32.434 20.696 79.416 15.43 120.174 7.94 8.428-1.549 8.323-13.663-.132-15.059-10.26-1.694-20.25-3.204-31.987-5.161-27.384-4.568-48.192-3.83-50.438-12.415-.714-2.732.087-8.703 3.299-13.457.972-1.438 2.248-2.589 3.746-3.451 15.351-10.445 70.632-15.253 108.718-7.08 14.268 3.062 24.58 6.514 31.896 10.252 3.619 1.849 35.63 22.622 35.63 22.622z" fill="#ffdecf"/><path d="m390.437 473.901c-8.879 5.49-18.119 10.452-27.676 14.843l-16.576-11.854c-9.309-6.657-20.851-9.448-32.159-7.682-33.954 5.303-74.64 4.015-111.557-8.037-48.684-15.893-67.221-42.472-72.028-51.179-10.512-19.043-18.141-45.816-10.29-51.179.39-.267.808-.472 1.25-.622 2.906 8.977 19.074 34.464 22.946 38.04 61.31 56.636 137.848 57.019 183.491 49.657 11.447-1.846 23.161.749 32.699 7.343z" fill="#ffbeaa"/><path d="m189.4 346.194c.175-3.005 1.24-6.981 3.515-10.347.972-1.438 2.248-2.589 3.746-3.451 2.046-1.392 4.801-2.684 8.13-3.858 5.842.236 10.468 2.812 11.291 6.775 1.08 5.2-4.797 10.819-13.126 12.549-5.308 1.103-10.33.361-13.556-1.668z" fill="#fff"/><path d="m422.58 290.399c-7.535 14.797-22.053 29.244-31.86 30.065-.276.025-.557.037-.843.037-.286.001-.567-.012-.843-.037-9.807-.821-24.325-15.268-31.86-30.065-8.382-16.461-4.947-27.12 4.619-29.803 7.901-2.215 17.513 1.703 25.343 12.407 1.305 1.784 4.177 1.784 5.482 0 7.829-10.704 17.442-14.623 25.343-12.407 9.567 2.683 13.001 13.343 4.619 29.803z" fill="#f44545"/><path d="m402.614 314.887c-4.212 3.215-8.359 5.281-11.894 5.577-.276.025-.557.037-.843.037-.286.001-.567-.012-.843-.037-9.807-.821-24.325-15.268-31.86-30.065-8.382-16.461-4.947-27.12 4.619-29.803.26-.073.521-.139.785-.198.061 5.35 1.819 11.87 5.659 19.412 8.099 15.902 22.967 31.465 34.377 35.077z" fill="#c42d2d"/></g></svg>